M48
;DRILL file {KiCad 4.0.5} date 02/25/17 14:43:30
;FORMAT={-:-/ absolute / metric / decimal}
FMAT,2
METRIC,TZ
T1C1.000
T2C2.200
T3C3.200
%
G90
G05
M71
T1
X122.22Y-69.03
X122.22Y-96.97
X124.76Y-69.03
X124.76Y-96.97
X127.3Y-69.03
X127.3Y-96.97
X129.84Y-69.03
X129.84Y-96.97
X132.38Y-69.03
X132.38Y-96.97
X134.92Y-69.03
X134.92Y-96.97
X137.46Y-69.03
X137.46Y-96.97
X140.Y-69.03
X140.Y-96.97
X142.54Y-69.03
X142.54Y-96.97
X145.08Y-69.03
X145.08Y-96.97
X147.62Y-69.03
X147.62Y-96.97
X150.16Y-69.03
X150.16Y-96.97
X152.7Y-69.03
X152.7Y-96.97
X155.24Y-69.03
X155.24Y-96.97
X157.78Y-69.03
X157.78Y-96.97
X181.5Y-51.34
X181.5Y-53.88
X181.5Y-56.42
X181.5Y-58.96
X181.5Y-61.5
X202.5Y-68.38
X202.5Y-70.92
X202.5Y-73.46
X202.5Y-76.
T2
X124.Y-49.
X124.Y-117.
X201.Y-49.
X201.Y-117.
T3
X138.5Y-53.
X138.5Y-113.
X193.5Y-94.
T0
M30
