G04 #@! TF.FileFunction,Copper,L1,Top,Signal*
%FSLAX46Y46*%
G04 Gerber Fmt 4.6, Leading zero omitted, Abs format (unit mm)*
G04 Created by KiCad (PCBNEW 4.0.5) date 02/25/17 14:43:24*
%MOMM*%
%LPD*%
G01*
G04 APERTURE LIST*
%ADD10C,0.200000*%
%ADD11C,5.000000*%
%ADD12R,1.800000X1.800000*%
%ADD13O,1.800000X1.800000*%
%ADD14R,1.700000X1.700000*%
%ADD15O,1.700000X1.700000*%
%ADD16C,1.700000*%
G04 APERTURE END LIST*
D10*
D11*
X193500000Y-94000000D03*
X138500000Y-113000000D03*
X138500000Y-53000000D03*
D12*
X202500000Y-76000000D03*
D13*
X202500000Y-73460000D03*
X202500000Y-70920000D03*
X202500000Y-68380000D03*
D14*
X181500000Y-61500000D03*
D15*
X181500000Y-58960000D03*
X181500000Y-56420000D03*
X181500000Y-53880000D03*
X181500000Y-51340000D03*
D16*
X122220000Y-96970000D03*
X124760000Y-96970000D03*
X127300000Y-96970000D03*
X129840000Y-96970000D03*
X132380000Y-96970000D03*
X134920000Y-96970000D03*
X137460000Y-96970000D03*
X140000000Y-96970000D03*
X142540000Y-96970000D03*
X145080000Y-96970000D03*
X147620000Y-96970000D03*
X150160000Y-96970000D03*
X152700000Y-96970000D03*
X155240000Y-96970000D03*
X157780000Y-96970000D03*
X157780000Y-69030000D03*
X155240000Y-69030000D03*
X152700000Y-69030000D03*
X150160000Y-69030000D03*
X147620000Y-69030000D03*
X145080000Y-69030000D03*
X142540000Y-69030000D03*
X140000000Y-69030000D03*
X137460000Y-69030000D03*
X134920000Y-69030000D03*
X132380000Y-69030000D03*
X129840000Y-69030000D03*
X127300000Y-69030000D03*
X124760000Y-69030000D03*
X122220000Y-69030000D03*
M02*
